<svg width="152" height="40" viewBox="0 0 152 40" fill="none" xmlns="http://www.w3.org/2000/svg">
<g clip-path="url(#clip0_3133_2053)">
<g clip-path="url(#clip1_3133_2053)">
<path d="M50.3685 27.904C49.1991 27.904 48.096 27.6884 47.0592 27.2571C46.0225 26.8258 45.1351 26.237 44.3969 25.4988C43.6588 24.7607 43.0699 23.8649 42.6469 22.8365C42.2156 21.7998 42.0083 20.705 42.0083 19.5438C42.0083 18.3827 42.2239 17.2879 42.6469 16.2678C43.0699 15.2476 43.6588 14.3602 44.3969 13.6303C45.1351 12.9005 46.0308 12.3199 47.0675 11.8969C48.1126 11.4739 49.2156 11.2583 50.3934 11.2583C52.4254 11.2583 54.1754 11.8472 55.6351 13.0332C57.0948 14.2192 58.0154 15.7784 58.4052 17.7275H54.1754C53.8353 16.9479 53.3211 16.3424 52.6493 15.9111C51.9775 15.4799 51.2145 15.2642 50.3685 15.2642C49.2156 15.2642 48.2536 15.6789 47.4822 16.5C46.7109 17.3211 46.3211 18.3412 46.3211 19.5604C46.3211 20.7796 46.7109 21.8081 47.4905 22.6457C48.2701 23.4834 49.2322 23.9064 50.3685 23.9064C51.231 23.9064 51.9941 23.6742 52.6493 23.218C53.3045 22.7619 53.8104 22.1149 54.1754 21.2607H58.4633C58.0901 23.2429 57.1611 24.8519 55.6765 26.0711C54.1919 27.2903 52.4171 27.904 50.3685 27.904Z" fill="#151619"/>
<path d="M73.5416 11.6896H76.743V27.4562H73.4006L73.0191 26.013C71.5842 27.2654 69.884 27.8957 67.9184 27.8957C66.3591 27.8957 64.9492 27.5308 63.6802 26.8092C62.4195 26.0877 61.4243 25.0841 60.711 23.8069C59.9977 22.5296 59.6411 21.1031 59.6411 19.5355C59.6411 17.968 59.9977 16.5663 60.711 15.2974C61.4243 14.0284 62.4113 13.0332 63.6802 12.3199C64.9409 11.5983 66.3591 11.2417 67.9184 11.2417C69.9255 11.2417 71.6506 11.8803 73.0937 13.1659L73.5416 11.6813V11.6896ZM65.1897 22.6291C66.0025 23.4502 67.0226 23.8649 68.2584 23.8649C69.4942 23.8649 70.5143 23.4585 71.3271 22.6374C72.1399 21.8163 72.5463 20.7879 72.5463 19.5438C72.5463 18.2998 72.1399 17.2713 71.3271 16.4502C70.5143 15.6291 69.4942 15.2227 68.2584 15.2227C67.0226 15.2227 66.0025 15.6374 65.1897 16.4585C64.3769 17.2796 63.9705 18.3081 63.9705 19.5438C63.9705 20.7796 64.3769 21.8081 65.1897 22.6291Z" fill="#151619"/>
<path d="M148.509 11.6896H151.711V27.4562H148.368L147.987 26.013C146.552 27.2654 144.852 27.8957 142.886 27.8957C141.327 27.8957 139.917 27.5308 138.648 26.8092C137.387 26.0877 136.392 25.0841 135.679 23.8069C134.966 22.5296 134.609 21.1031 134.609 19.5355C134.609 17.968 134.966 16.5663 135.679 15.2974C136.392 14.0284 137.379 13.0332 138.648 12.3199C139.909 11.5983 141.327 11.2417 142.886 11.2417C144.893 11.2417 146.618 11.8803 148.061 13.1659L148.509 11.6813V11.6896ZM140.157 22.6291C140.97 23.4502 141.99 23.8649 143.226 23.8649C144.462 23.8649 145.482 23.4585 146.295 22.6374C147.108 21.8163 147.514 20.7879 147.514 19.5438C147.514 18.2998 147.108 17.2713 146.295 16.4502C145.482 15.6291 144.462 15.2227 143.226 15.2227C141.99 15.2227 140.97 15.6374 140.157 16.4585C139.345 17.2796 138.938 18.3081 138.938 19.5438C138.938 20.7796 139.345 21.8081 140.157 22.6291Z" fill="#151619"/>
<path d="M87.9479 11.25C89.5071 11.25 90.9171 11.6066 92.1777 12.3282C93.4384 13.0498 94.4254 14.045 95.1386 15.314C95.8519 16.5912 96.2085 18.0095 96.2085 19.577C96.2085 21.1446 95.8519 22.5711 95.1386 23.8483C94.4254 25.1256 93.4384 26.1291 92.1777 26.8507C90.9171 27.5723 89.5071 27.9372 87.9479 27.9372C86.3886 27.9372 84.904 27.4976 83.6102 26.6102V33.154H79.3472V11.6896H82.1505L82.8803 13.1327C84.2986 11.8803 85.9822 11.25 87.9396 11.25H87.9479ZM84.5142 22.6623C85.327 23.4834 86.3472 23.8981 87.583 23.8981C88.8187 23.8981 89.8389 23.4917 90.6517 22.6706C91.4645 21.8495 91.8709 20.8211 91.8709 19.577C91.8709 18.3329 91.4645 17.3045 90.6517 16.4834C89.8389 15.6623 88.8187 15.2559 87.583 15.2559C86.3472 15.2559 85.327 15.6706 84.5142 16.4917C83.7014 17.3128 83.295 18.3412 83.295 19.577C83.295 20.8128 83.7014 21.8412 84.5142 22.6623Z" fill="#151619"/>
<path d="M124.913 11.25C126.489 11.25 127.916 11.6066 129.177 12.3282C130.437 13.0498 131.424 14.0367 132.137 15.3057C132.842 16.5746 133.199 18.0012 133.199 19.577C133.199 21.1528 132.842 22.5794 132.137 23.8483C131.432 25.1173 130.445 26.1126 129.177 26.8258C127.916 27.5474 126.489 27.904 124.913 27.904C123.022 27.904 121.38 27.3235 119.979 26.154L119.464 27.4645H116.329V6H120.592V12.5438C121.853 11.6813 123.296 11.25 124.913 11.25ZM121.488 22.6374C122.309 23.4585 123.329 23.8649 124.565 23.8649C125.801 23.8649 126.821 23.4585 127.634 22.6374C128.447 21.8164 128.853 20.7962 128.853 19.5687C128.853 18.3412 128.447 17.2962 127.634 16.4751C126.821 15.654 125.801 15.2476 124.565 15.2476C123.329 15.2476 122.301 15.6623 121.488 16.4834C120.667 17.3045 120.261 18.3329 120.261 19.5687C120.261 20.8045 120.667 21.8164 121.488 22.6374Z" fill="#151619"/>
<path d="M109.694 11.6897V19.1624C109.694 20.3402 109.321 21.3188 108.558 22.0902C107.82 22.8449 106.899 23.2264 105.788 23.2513C104.668 23.2347 103.739 22.8449 103.009 22.0902C102.255 21.3106 101.881 20.3402 101.881 19.1624V11.6897H97.6184V19.1624C97.6184 20.6139 97.9585 21.9492 98.6551 23.1601C99.3435 24.371 100.289 25.3248 101.492 26.0215C102.694 26.7181 104.021 27.0582 105.464 27.0582C105.605 27.0582 105.746 27.0582 105.887 27.0499C107.314 26.9504 108.608 26.4776 109.785 25.6482V26.6601C109.785 27.7797 109.404 28.6755 108.649 29.3473C107.903 30.0025 106.982 30.3425 105.896 30.3508C105.108 30.3342 104.386 30.1435 103.714 29.7951C103.009 29.4219 102.537 28.8911 102.313 28.2193H98.0829C98.4395 30.0274 99.3352 31.4456 100.762 32.4658C102.097 33.4279 103.748 33.9421 105.713 34.0001C105.78 34.0001 105.854 34.0001 105.921 34.0001C108.417 34.0001 110.383 33.2869 111.826 31.8686C113.261 30.4504 113.982 28.5096 113.982 26.0463V11.6897H109.719H109.694Z" fill="#151619"/>
<path d="M28 27.7796V34C20.2701 34 14 27.7299 14 20H20.2204C20.2204 24.2962 23.7038 27.7796 28 27.7796Z" fill="#151619"/>
<path d="M28 20H21.7796C21.7796 15.7038 18.2962 12.2204 14 12.2204C9.70379 12.2204 6.22038 15.7038 6.22038 20H0C0 12.2701 6.27014 6 14 6C21.7299 6 28 12.2701 28 20Z" fill="#151619"/>
<path d="M14 20C14 27.7299 7.72986 34 0 34V27.7796C4.29621 27.7796 7.77962 24.2962 7.77962 20H14Z" fill="#151619"/>
</g>
</g>
<defs>
<clipPath id="clip0_3133_2053">
<rect width="151.711" height="40" fill="white"/>
</clipPath>
<clipPath id="clip1_3133_2053">
<rect width="151.711" height="28" fill="white" transform="translate(0 6)"/>
</clipPath>
</defs>
</svg>
