<svg width="171" height="40" viewBox="0 0 171 40" fill="none" xmlns="http://www.w3.org/2000/svg">
<g clip-path="url(#clip0_3133_1956)">
<mask id="mask0_3133_1956" style="mask-type:alpha" maskUnits="userSpaceOnUse" x="132" y="-6" width="41" height="26">
<path d="M172.768 -5.62476H132.322L134.33 19.5985H148.036L152.567 14.9779L157.165 19.6431H172.969L172.79 6.45114L172.768 -5.62476Z" fill="#1D1D1D"/>
</mask>
<g mask="url(#mask0_3133_1956)">
<path d="M153.843 36.2261L151.254 36.2298L151.202 0.203068L153.791 0.199341L153.843 36.2261Z" fill="#151619"/>
<path d="M144.66 34.4732L142.416 33.1818L160.384 1.95578L162.629 3.24719L144.66 34.4732Z" fill="#151619"/>
<path d="M137.584 28.364L136.286 26.1234L167.46 8.06514L168.758 10.3057L137.584 28.364Z" fill="#151619"/>
<path d="M134.511 19.5353L134.507 16.946L170.534 16.8941L170.538 19.4834L134.511 19.5353Z" fill="#151619"/>
<path d="M136.264 10.3526L137.555 8.10834L168.781 26.0768L167.49 28.321L136.264 10.3526Z" fill="#151619"/>
<path d="M142.373 3.27641L144.614 1.97854L162.672 33.1527L160.431 34.4506L142.373 3.27641Z" fill="#151619"/>
</g>
<mask id="mask1_3133_1956" style="mask-type:luminance" maskUnits="userSpaceOnUse" x="0" y="0" width="171" height="41">
<path d="M0 0.000244141H170.893V40.0002H0V0.000244141Z" fill="white"/>
</mask>
<g mask="url(#mask1_3133_1956)">
<path d="M3.0726 14.481V29.8944V29.8103H8.05189C10.1742 29.8103 11.9701 29.0521 13.3578 27.6203C14.7455 26.1885 15.4801 24.3355 15.4801 22.1456C15.4801 19.9558 14.7455 18.1028 13.3578 16.671C11.8885 15.2392 10.1742 14.481 8.05189 14.481H3.0726ZM0.134033 11.6174H8.05189C10.9905 11.6174 13.521 12.6281 15.4801 14.5653C17.4392 16.5867 18.4187 19.1135 18.4187 22.1456C18.4187 25.1778 17.4392 27.7046 15.4801 29.726C13.521 31.7474 10.9905 32.7581 8.05189 32.7581H0.134033V11.6174Z" fill="#151619"/>
<path d="M22.8274 27.7883C22.8274 29.3887 24.1334 30.4837 25.8475 30.4837C28.2147 30.4837 29.8474 29.3044 29.8474 27.5357V25.1774H25.8475C24.1334 25.1774 22.8274 26.2723 22.8274 27.7883ZM20.9499 17.0074H32.6225V30.1467H34.5816V32.7578H30.0922V30.9891C29.1127 32.3367 27.3984 33.0946 25.5209 33.0946C23.97 33.0946 22.6641 32.5892 21.6029 31.5785C20.5416 30.5678 20.052 29.3044 20.052 27.7883C20.052 26.3566 20.5416 25.0932 21.6029 24.0824C22.5824 23.0717 23.8884 22.5664 25.5209 22.5664H29.8474V19.7869H20.9499V17.0074Z" fill="#151619"/>
<path d="M55.6104 25.0045C55.6104 26.6049 56.1004 27.8683 57.0798 28.879C58.0593 29.8897 59.2838 30.3951 60.8347 30.3951C62.3856 30.3951 63.61 29.8897 64.5895 28.879C65.569 27.8683 66.0588 26.6049 66.0588 25.0045C66.0588 23.4042 65.569 22.1408 64.5895 21.1301C63.61 20.0351 62.304 19.5299 60.8347 19.5299C59.2838 19.5299 58.1411 20.0351 57.0798 21.1301C56.1004 22.1408 55.6104 23.4042 55.6104 25.0045ZM55.6104 19.3613C56.9981 17.6769 58.9573 16.7504 61.3245 16.7504C63.4468 16.7504 65.2425 17.5083 66.7934 19.1087C68.2627 20.6247 68.9973 22.6462 68.9973 24.9203C68.9973 27.2787 68.2627 29.2158 66.7934 30.8162C65.3241 32.4165 63.5284 33.1745 61.3245 33.1745C58.8757 33.1745 56.9981 32.3322 55.6104 30.5635V32.8376H52.8352V10.7703H55.6104V19.3613Z" fill="#151619"/>
<path d="M74.0064 32.7577H71.2312V17.0073H78.9041V19.8711H74.0064V32.7577Z" fill="#151619"/>
<path d="M92.6181 23.5763C92.0467 21.0496 90.0061 19.3651 87.4756 19.3651C84.8635 19.3651 82.9045 20.9653 82.4147 23.5763H92.6181ZM81.6801 19.0281C83.231 17.4278 85.1901 16.6699 87.4756 16.6699C89.7611 16.6699 91.6386 17.5121 93.2711 19.1124C94.7404 20.6285 95.5567 22.5656 95.5567 24.924C95.5567 25.1767 95.4751 25.5978 95.4751 25.9347V26.0189L95.3935 26.1031H82.4147C82.6595 27.3665 83.231 28.4615 84.1288 29.2196C85.1083 30.0619 86.2511 30.483 87.5572 30.483C89.6795 30.483 91.4754 29.388 92.2917 27.6192V27.5349H95.3119L95.2302 27.7035C94.169 30.9883 91.0672 33.0938 87.4756 33.0938C85.1901 33.0938 83.231 32.2517 81.6801 30.7356C80.1292 29.1353 79.3945 27.1981 79.3945 24.8397C79.3945 22.5656 80.1292 20.6285 81.6801 19.0281Z" fill="#151619"/>
<path d="M100.373 27.7883C100.373 29.3887 101.679 30.4837 103.393 30.4837C105.761 30.4837 107.393 29.3044 107.393 27.5357V25.1774H103.393C101.679 25.1774 100.373 26.2723 100.373 27.7883ZM98.4958 17.0074H110.168V30.1467H112.128V32.7578H107.638V30.9891C106.659 32.3367 104.944 33.0946 103.067 33.0946C101.516 33.0946 100.21 32.5892 99.1488 31.5785C98.0877 30.5678 97.5979 29.3044 97.5979 27.7883C97.5979 26.3566 98.0877 25.0932 99.1488 24.0824C100.128 23.0717 101.434 22.5664 103.067 22.5664H107.393V19.7869H98.4958V17.0074Z" fill="#151619"/>
<path d="M37.8457 17.0073L42.825 29.1359L47.8043 17.0073H50.906L47.7226 24.5036L41.1109 39.917L38.5803 38.7377L41.2741 32.5893L34.7439 17.0073H37.8457Z" fill="#151619"/>
<path d="M127.229 18.1042L122.005 24.8424L128.208 32.7595H124.78L119.801 26.1899H117.352V32.7595H114.577V10.6924H117.352V23.4947H119.801L125.107 16.4197L127.229 18.1042Z" fill="#151619"/>
</g>
<mask id="mask2_3133_1956" style="mask-type:luminance" maskUnits="userSpaceOnUse" x="0" y="0" width="171" height="41">
<path d="M0 0.000244141H170.893V40.0002H0V0.000244141Z" fill="white"/>
</mask>
<g mask="url(#mask2_3133_1956)">
<mask id="mask3_3133_1956" style="mask-type:alpha" maskUnits="userSpaceOnUse" x="132" y="-6" width="41" height="26">
<path d="M172.768 -5.62463H132.322L134.33 19.5986H148.036L152.567 14.978L157.165 19.6432H172.969L172.79 6.45126L172.768 -5.62463Z" fill="#1D1D1D"/>
</mask>
<g mask="url(#mask3_3133_1956)">
<path d="M153.843 36.2262L151.254 36.2299L151.202 0.20319L153.791 0.199463L153.843 36.2262Z" fill="#151619"/>
<path d="M144.66 34.4733L142.416 33.1819L160.384 1.9559L162.629 3.24731L144.66 34.4733Z" fill="#151619"/>
<path d="M137.584 28.3641L136.286 26.1236L167.46 8.06526L168.758 10.3058L137.584 28.3641Z" fill="#151619"/>
<path d="M134.511 19.5354L134.507 16.9461L170.534 16.8942L170.538 19.4835L134.511 19.5354Z" fill="#151619"/>
<path d="M136.264 10.3527L137.555 8.10846L168.781 26.0769L167.49 28.3212L136.264 10.3527Z" fill="#151619"/>
<path d="M142.373 3.27654L144.614 1.97867L162.672 33.1528L160.431 34.4507L142.373 3.27654Z" fill="#151619"/>
</g>
</g>
</g>
<defs>
<clipPath id="clip0_3133_1956">
<rect width="170.893" height="40" fill="white"/>
</clipPath>
</defs>
</svg>
