<svg width="127" height="40" viewBox="0 0 127 40" fill="none" xmlns="http://www.w3.org/2000/svg">
<g clip-path="url(#clip0_3133_1944)">
<path d="M0.5984 29.9391H4.192C4.8576 31.9359 6.4224 32.8031 8.7872 32.8031C11.3184 32.8031 13.3152 31.1071 13.3152 27.9103V25.9455C12.2848 27.4111 10.2848 28.5407 7.9904 28.5407C3.4976 28.5407 0 24.8127 0 20.0863C0 15.3919 3.4944 11.6639 7.9904 11.6639C10.288 11.6639 12.2848 12.7615 13.3152 14.2271V11.9967H16.976V27.6095C16.976 33.4015 13.1488 35.9327 8.688 35.9327C4.0928 35.9295 1.0304 33.3983 0.5984 29.9391ZM13.616 20.0863C13.616 17.1231 11.4528 14.9919 8.656 14.9919C5.8592 14.9919 3.696 17.1231 3.696 20.0863C3.696 23.0495 5.8592 25.1807 8.656 25.1807C11.4528 25.1807 13.616 23.0463 13.616 20.0863Z" fill="#151619"/>
<path d="M20.5696 4.06714H24.2304V28.6399H20.5696V4.06714Z" fill="#151619"/>
<path d="M27.5935 21.9487V11.9967H31.2543V21.3503C31.2543 24.0127 32.4511 25.6447 34.5823 25.6447C36.9791 25.6447 38.6431 23.7791 38.6431 20.1855V11.9967H42.3039V28.6399H38.6431V26.3775C37.6767 28.0735 35.9135 28.9727 33.7823 28.9727C29.9583 28.9727 27.5935 26.2111 27.5935 21.9487Z" fill="#151619"/>
<path d="M44.7361 20.3166C44.7361 15.3886 48.1313 11.6606 53.2897 11.6606C58.3841 11.6606 61.9777 15.555 61.6129 21.2126H48.3649C48.4641 23.7438 50.4609 25.7406 53.3921 25.7406C55.2577 25.7406 56.8193 25.0078 57.5873 23.411H61.4145C60.4481 26.5054 57.5201 28.9694 53.2577 28.9694C48.2977 28.9726 44.7361 25.3118 44.7361 20.3166ZM48.4641 18.6206H57.6833C57.1169 15.923 55.2193 14.7262 53.1905 14.7262C50.8961 14.7262 48.9633 16.0574 48.4641 18.6206Z" fill="#151619"/>
<path d="M63.2192 34.9471L64.8448 31.2095H65.136C65.4272 32.8351 65.6576 33.8911 66.208 35.0303C66.3552 35.0783 67.28 35.3887 68.16 35.3887C72.4192 35.3887 74.6464 30.6271 75.6512 25.3279L76.432 21.9487H76.2848C74.7584 25.5903 71.44 29.0367 68.5984 29.0367C65.8176 29.0367 64.08 26.8415 64.08 23.0719C64.08 17.2223 68.4512 11.9551 74.256 11.9551C75.9456 11.9551 77.1648 12.9631 77.6352 13.6927L81.1296 11.9711H81.2448L78.8896 25.3631C77.7184 32.0767 73.168 35.9263 67.936 35.9263C66.144 35.9199 64.1152 35.3183 63.2192 34.9471ZM76.9216 18.0927L77.376 15.7183C77.1168 13.7663 75.7984 12.5311 74.32 12.5311C70.5984 12.5311 67.5904 17.6511 67.5904 23.2095C67.5904 26.0223 68.5184 27.3855 69.9456 27.3855C71.7216 27.3887 75.7984 23.8943 76.9216 18.0927Z" fill="#151619"/>
<path d="M83.4881 24.6591L86.6561 6.73275L84.3649 5.62875L84.4129 5.30235L90.1345 4.23035L90.2977 4.40955L86.6241 25.2287C86.2977 27.0175 86.3969 27.5199 86.8833 27.5199C87.4849 27.5199 88.5089 27.0335 89.5329 25.7471L89.7601 25.9583C88.3617 28.0383 86.9313 29.0303 85.2257 29.0303C83.5681 29.0303 82.9025 28.0223 83.4881 24.6591Z" fill="#151619"/>
<path d="M92.6721 23.5359L94.2817 14.4191L92.2017 13.4431L92.2657 13.1519L97.7441 11.9487L97.9073 12.1279L97.5489 14.3071L95.8433 23.7983C95.4529 25.9935 95.9905 27.4239 97.3377 27.4239C99.1265 27.4239 103.27 23.7983 104.474 18.9727L105.286 14.4223L103.206 13.4463L103.254 13.1551L108.765 11.9519L108.912 12.1311L108.522 14.2943L106.605 25.2319C106.294 27.0047 106.41 27.5231 106.88 27.5231C107.498 27.5231 108.506 27.0367 109.53 25.7503L109.757 25.9615C108.374 28.0415 106.928 29.0335 105.238 29.0335C103.254 29.0335 102.688 27.7663 104.134 21.9455H104.003C102.864 24.9695 98.9313 29.0335 95.9905 29.0335C93.3697 29.0303 92.0545 27.1615 92.6721 23.5359Z" fill="#151619"/>
<path d="M115.344 19.2607C115.149 20.1375 115.053 20.9343 115.053 21.5359C115.053 24.9983 116.336 27.1935 119.555 27.1935C121.587 27.1935 123.587 26.2495 124.771 24.8383L124.983 24.9855C123.389 27.6351 120.87 29.0335 117.702 29.0335C113.818 29.0335 111.51 26.3359 111.51 22.4031C111.51 16.4223 115.866 11.9519 121.05 11.9519C124.787 11.9519 126.723 14.3583 126.723 17.6415C126.723 18.1631 126.675 18.7135 126.576 19.2671L115.344 19.2607ZM115.424 18.8863L123.389 18.5119C123.552 17.5359 123.648 16.7231 123.648 16.0735C123.648 13.7503 122.64 12.5311 120.803 12.5311C117.914 12.5311 116.157 15.9935 115.424 18.8863Z" fill="#151619"/>
</g>
<defs>
<clipPath id="clip0_3133_1944">
<rect width="126.723" height="40" fill="white"/>
</clipPath>
</defs>
</svg>
