<svg xmlns="http://www.w3.org/2000/svg" xmlns:xlink="http://www.w3.org/1999/xlink" width="500" zoomAndPan="magnify" viewBox="0 0 375 149.999998" height="200" preserveAspectRatio="xMidYMid meet" version="1.0"><defs><g/><clipPath id="9d6c8fd535"><path d="M 15 28.808594 L 115.5 28.808594 L 115.5 121 L 15 121 Z M 15 28.808594 " clip-rule="nonzero"/></clipPath></defs><g clip-path="url(#9d6c8fd535)"><path fill="#000000" d="M 103 28.808594 L 27.59375 28.808594 C 20.664062 28.808594 15.023438 34.445312 15.023438 41.375 L 15.023438 108.40625 C 15.023438 115.335938 20.664062 120.976562 27.59375 120.976562 L 103 120.976562 C 109.929688 120.976562 115.570312 115.335938 115.570312 108.40625 L 115.570312 41.375 C 115.570312 34.445312 109.929688 28.808594 103 28.808594 Z M 103 28.808594 " fill-opacity="1" fill-rule="nonzero"/></g><path fill="#ffffff" d="M 103 112.597656 L 27.59375 112.597656 C 25.285156 112.597656 23.402344 110.71875 23.402344 108.40625 L 23.402344 49.753906 L 107.191406 49.753906 L 107.191406 108.40625 C 107.191406 110.71875 105.308594 112.597656 103 112.597656 Z M 103 112.597656 " fill-opacity="1" fill-rule="nonzero"/><path fill="#ffc107" d="M 86.746094 104.21875 L 43.847656 104.21875 C 42.316406 104.21875 41.015625 103.121094 40.75 101.613281 L 36.015625 74.378906 C 35.820312 73.253906 36.25 72.109375 37.144531 71.394531 C 38.03125 70.675781 39.242188 70.496094 40.300781 70.933594 L 53.144531 76.179688 L 62.570312 59.714844 C 63.691406 57.757812 66.902344 57.757812 68.023438 59.714844 L 77.449219 76.179688 L 90.292969 70.933594 C 91.351562 70.496094 92.558594 70.675781 93.449219 71.394531 C 94.339844 72.109375 94.769531 73.253906 94.578125 74.378906 L 89.84375 101.613281 C 89.578125 103.121094 88.273438 104.21875 86.746094 104.21875 Z M 86.746094 104.21875 " fill-opacity="1" fill-rule="nonzero"/><g fill="#000000" fill-opacity="1"><g transform="translate(126.333602, 101.990209)"><g><path d="M 23.609375 0.515625 C 19.773438 0.515625 16.335938 -0.101562 13.296875 -1.34375 C 10.253906 -2.59375 7.820312 -4.4375 6 -6.875 C 4.1875 -9.3125 3.234375 -12.25 3.140625 -15.6875 L 16.734375 -15.6875 C 16.929688 -13.75 17.601562 -12.269531 18.75 -11.25 C 19.894531 -10.226562 21.390625 -9.71875 23.234375 -9.71875 C 25.128906 -9.71875 26.625 -10.148438 27.71875 -11.015625 C 28.8125 -11.890625 29.359375 -13.097656 29.359375 -14.640625 C 29.359375 -15.941406 28.921875 -17.015625 28.046875 -17.859375 C 27.179688 -18.703125 26.113281 -19.394531 24.84375 -19.9375 C 23.570312 -20.488281 21.765625 -21.113281 19.421875 -21.8125 C 16.035156 -22.863281 13.269531 -23.910156 11.125 -24.953125 C 8.988281 -26.003906 7.144531 -27.550781 5.59375 -29.59375 C 4.050781 -31.632812 3.28125 -34.296875 3.28125 -37.578125 C 3.28125 -42.460938 5.046875 -46.285156 8.578125 -49.046875 C 12.117188 -51.816406 16.734375 -53.203125 22.421875 -53.203125 C 28.191406 -53.203125 32.84375 -51.816406 36.375 -49.046875 C 39.914062 -46.285156 41.8125 -42.441406 42.0625 -37.515625 L 28.25 -37.515625 C 28.144531 -39.203125 27.519531 -40.53125 26.375 -41.5 C 25.226562 -42.476562 23.757812 -42.96875 21.96875 -42.96875 C 20.425781 -42.96875 19.179688 -42.554688 18.234375 -41.734375 C 17.285156 -40.910156 16.8125 -39.726562 16.8125 -38.1875 C 16.8125 -36.488281 17.609375 -35.164062 19.203125 -34.21875 C 20.796875 -33.269531 23.285156 -32.25 26.671875 -31.15625 C 30.054688 -30.007812 32.804688 -28.910156 34.921875 -27.859375 C 37.046875 -26.816406 38.878906 -25.300781 40.421875 -23.3125 C 41.960938 -21.320312 42.734375 -18.753906 42.734375 -15.609375 C 42.734375 -12.628906 41.972656 -9.914062 40.453125 -7.46875 C 38.941406 -5.03125 36.738281 -3.085938 33.84375 -1.640625 C 30.957031 -0.203125 27.546875 0.515625 23.609375 0.515625 Z M 23.609375 0.515625 "/></g></g></g><g fill="#000000" fill-opacity="1"><g transform="translate(172.278451, 101.990209)"><g><path d="M 17.1875 -52.453125 L 17.1875 -21.078125 C 17.1875 -17.929688 17.957031 -15.507812 19.5 -13.8125 C 21.039062 -12.125 23.304688 -11.28125 26.296875 -11.28125 C 29.285156 -11.28125 31.578125 -12.125 33.171875 -13.8125 C 34.765625 -15.507812 35.5625 -17.929688 35.5625 -21.078125 L 35.5625 -52.453125 L 48.34375 -52.453125 L 48.34375 -21.140625 C 48.34375 -16.460938 47.34375 -12.503906 45.34375 -9.265625 C 43.351562 -6.023438 40.675781 -3.582031 37.3125 -1.9375 C 33.957031 -0.300781 30.210938 0.515625 26.078125 0.515625 C 21.941406 0.515625 18.242188 -0.289062 14.984375 -1.90625 C 11.722656 -3.519531 9.144531 -5.957031 7.25 -9.21875 C 5.351562 -12.488281 4.40625 -16.460938 4.40625 -21.140625 L 4.40625 -52.453125 Z M 17.1875 -52.453125 "/></g></g></g><g fill="#000000" fill-opacity="1"><g transform="translate(224.946949, 101.990209)"><g><path d="M 36.390625 -26.90625 C 39.429688 -26.25 41.867188 -24.738281 43.703125 -22.375 C 45.546875 -20.007812 46.46875 -17.304688 46.46875 -14.265625 C 46.46875 -9.890625 44.9375 -6.414062 41.875 -3.84375 C 38.8125 -1.28125 34.539062 0 29.0625 0 L 4.625 0 L 4.625 -52.453125 L 28.25 -52.453125 C 33.570312 -52.453125 37.738281 -51.226562 40.75 -48.78125 C 43.769531 -46.34375 45.28125 -43.035156 45.28125 -38.859375 C 45.28125 -35.765625 44.46875 -33.195312 42.84375 -31.15625 C 41.226562 -29.113281 39.078125 -27.695312 36.390625 -26.90625 Z M 17.40625 -31.234375 L 25.78125 -31.234375 C 27.875 -31.234375 29.476562 -31.691406 30.59375 -32.609375 C 31.71875 -33.535156 32.28125 -34.894531 32.28125 -36.6875 C 32.28125 -38.476562 31.71875 -39.847656 30.59375 -40.796875 C 29.476562 -41.742188 27.875 -42.21875 25.78125 -42.21875 L 17.40625 -42.21875 Z M 26.828125 -10.3125 C 28.960938 -10.3125 30.613281 -10.796875 31.78125 -11.765625 C 32.957031 -12.734375 33.546875 -14.140625 33.546875 -15.984375 C 33.546875 -17.828125 32.9375 -19.269531 31.71875 -20.3125 C 30.5 -21.363281 28.816406 -21.890625 26.671875 -21.890625 L 17.40625 -21.890625 L 17.40625 -10.3125 Z M 26.828125 -10.3125 "/></g></g></g><g fill="#000000" fill-opacity="1"><g transform="translate(274.178909, 101.990209)"><g><path d="M 17.40625 -9.859375 L 34.140625 -9.859375 L 34.140625 0 L 4.625 0 L 4.625 -52.453125 L 17.40625 -52.453125 Z M 17.40625 -9.859375 "/></g></g></g><g fill="#000000" fill-opacity="1"><g transform="translate(309.814188, 101.990209)"><g><path d="M 49.609375 -52.453125 L 31.453125 -17.328125 L 31.453125 0 L 18.671875 0 L 18.671875 -17.328125 L 0.515625 -52.453125 L 15.015625 -52.453125 L 25.1875 -30.484375 L 35.265625 -52.453125 Z M 49.609375 -52.453125 "/></g></g></g></svg>