<svg width="155" height="40" viewBox="0 0 155 40" fill="none" xmlns="http://www.w3.org/2000/svg">
<g clip-path="url(#clip0_3133_2039)">
<mask id="mask0_3133_2039" style="mask-type:luminance" maskUnits="userSpaceOnUse" x="0" y="10" width="155" height="20">
<path d="M154.5 10H0V30H154.5V10Z" fill="white"/>
</mask>
<g mask="url(#mask0_3133_2039)">
<path d="M9.3735 17.7082C7.86286 17.2305 6.675 16.8561 6.675 16.0297C6.675 15.3583 7.35931 14.6353 8.46967 14.6353C10.1869 14.6353 11.3619 16.0168 11.3748 16.0297L11.5168 16.1976L14.6931 12.8793L14.5898 12.7502C14.5123 12.634 12.4852 10.0259 7.94034 10.0259C3.39547 10.0259 0.722775 12.9955 0.722775 15.8877C0.722775 20.0323 4.14434 21.1169 6.63627 21.9045C8.14692 22.3822 9.33475 22.7566 9.33475 23.5829C9.33475 24.603 8.39225 25.3777 7.13982 25.3777C4.8803 25.3777 3.33091 23.4797 3.318 23.4668L3.17597 23.299L-0.0131836 26.6301L0.0901089 26.7592C0.0901089 26.7592 2.72407 30.013 7.6692 30.013C9.92875 30.013 11.8525 29.3674 13.247 28.1537C14.564 27.0045 15.287 25.4294 15.287 23.7121C15.287 19.5675 11.8654 18.483 9.3735 17.6953V17.7082ZM27.9662 10.5294H22.1302L14.9643 29.4706H20.8132L22.1431 25.4939H27.9662L29.2961 29.4706H35.145L28.0178 10.6585L27.9662 10.5294ZM23.5892 21.1298L25.0482 16.5204L26.5072 21.1298H23.5892ZM48.5859 20.4842L40.9164 10.5294H36.2553V29.4706H41.6783V19.5029L49.3089 29.3932L49.3606 29.4706H53.9958V10.5294H48.573V20.4971L48.5859 20.4842ZM65.2806 17.6953C63.7699 17.2176 62.582 16.8432 62.582 16.0168C62.582 15.3454 63.2663 14.6224 64.3767 14.6224C66.094 14.6224 67.2689 16.0039 67.2818 16.0168L67.4238 16.1847L70.6001 12.8664L70.4968 12.7373C70.4193 12.6211 68.3923 10.0129 63.8473 10.0129C59.3025 10.0129 56.6298 13.0084 56.6298 15.9006C56.6298 20.0452 60.0513 21.1298 62.5433 21.9174C64.0539 22.3951 65.2418 22.7695 65.2418 23.5959C65.2418 24.616 64.2993 25.3906 63.0468 25.3906C60.7873 25.3906 59.2379 23.4926 59.225 23.4797L59.083 23.3119L55.8938 26.643L55.9972 26.7721C55.9972 26.7721 58.6311 30.0259 63.5763 30.0259C65.8358 30.0259 67.7596 29.3803 69.154 28.1666C70.471 27.0175 71.1941 25.4423 71.1941 23.725C71.1941 19.5804 67.7725 18.4959 65.2806 17.7082V17.6953Z" fill="#151619"/>
<path d="M90.0449 17.708C88.534 17.2303 87.3465 16.8559 87.3465 16.0295C87.3465 15.3581 88.0307 14.6351 89.1415 14.6351C90.8582 14.6351 92.0332 16.0166 92.0465 16.0295L92.1882 16.1974L95.3649 12.8791L95.2615 12.75C95.184 12.6338 93.1565 10.0256 88.6115 10.0256C84.0665 10.0256 81.3942 13.0211 81.3942 15.9133C81.3942 20.0579 84.8157 21.1425 87.3074 21.9301C88.8182 22.4078 90.0065 22.7822 90.0065 23.6086C90.0065 24.6286 89.064 25.4033 87.8115 25.4033C85.5515 25.4033 84.0024 23.5053 83.989 23.4924L83.8474 23.3246L80.6582 26.6557L80.7615 26.7848C80.7615 26.7848 83.3957 30.0386 88.3407 30.0386C90.5999 30.0386 92.524 29.393 93.9182 28.1793C95.2357 27.0301 95.9582 25.455 95.9582 23.7377C95.9582 19.5931 92.5365 18.5086 90.0449 17.7209V17.708Z" fill="#151619"/>
<path d="M102.673 22.0464H108.935V17.6823H102.673V15.1645H111.053V10.5293H97.25V29.4706H111.311V24.8483H102.673V22.0464Z" fill="#151619"/>
<path d="M128.07 17.0884C128.07 15.2808 127.372 13.6281 126.12 12.4273C124.841 11.2007 123.072 10.5293 121.11 10.5293H113.066V29.4706H118.489V23.6345H119.935L123.111 29.4706H128.857L124.945 22.5887C125.642 22.1884 128.056 20.5616 128.056 17.0755L128.07 17.0884ZM120.851 18.7539H118.502V15.4228H120.851C121.911 15.4228 122.646 16.1071 122.646 17.0884C122.646 18.0696 121.911 18.7539 120.851 18.7539Z" fill="#151619"/>
<path d="M135.661 10.5293H130.239V29.4706H135.661V10.5293Z" fill="#151619"/>
<path d="M152.059 15.4228V10.5293H138.256V29.4706H143.68V22.976H149.941V18.0826H143.68V15.4228H152.059Z" fill="#151619"/>
<path d="M151.981 30.0128C153.372 30.0128 154.5 28.8855 154.5 27.495C154.5 26.1045 153.372 24.9773 151.981 24.9773C150.591 24.9773 149.464 26.1045 149.464 27.495C149.464 28.8855 150.591 30.0128 151.981 30.0128Z" fill="#151619"/>
</g>
</g>
<defs>
<clipPath id="clip0_3133_2039">
<rect width="154.5" height="40" fill="white"/>
</clipPath>
</defs>
</svg>
